# xmcd
#
# Track frame offsets: 
#        150
#        16070
#        33255
#        58075
#        79217
#        98765
#        120777
#        146936
#        170987
#        186997
#        214039
#        230065
#        247667
#        269269
#        291228
#        313897
#
# Disc length: 4530 seconds
#
# Revision: 0
# Processed by: cddbd v1.5.2PL0 Copyright (c) Steve Scherf et al.
# Submitted via: ExactAudioCopy v0.99pb5
#
DISCID=e611b010
DTITLE=Etta James - The Essential [CD1]
DYEAR=2010
DGENRE=Blues
TTITLE0=The Blues Is My Business
TTITLE1=If I Had Any Pride Left At All
TTITLE2=Crawlin' King Snake
TTITLE3=Born On The Bayou
TTITLE4=I've Been Lovin' You Too Long
TTITLE5=It's A Man's Man's World
TTITLE6=Somebody To Love
TTITLE7=Cry Like A Rainy Day
TTITLE8=Hush Hush
TTITLE9=Miss You
TTITLE10=The Rock
TTITLE11=Lil' Red Rooster
TTITLE12=Only Women Bleed
TTITLE13=Strongest Weakness
TTITLE14=Cry Me A River
TTITLE15=Purple Rain
EXTD=
EXTT0=
EXTT1=
EXTT2=
EXTT3=
EXTT4=
EXTT5=
EXTT6=
EXTT7=
EXTT8=
EXTT9=
EXTT10=
EXTT11=
EXTT12=
EXTT13=
EXTT14=
EXTT15=
PLAYORDER=
